#!OML:ASF E:/inclinewalkrobotboard/Project1/Captureday1/Session1/subject1.ASF
:FULLY-SPECIFIED
:DEGREES
226
root 0 0 0 -0.5090102546397038 -3.0167422304073983 -0.19454303841099174
lowerback 11.216315486049524 0.6352209480524295 0.3993568842380032
upperback -1.9407389124971717 0.9282142931078722 0.49731970916532464
thorax -8.373715085581598 0.4321594776455776 0.10975774025557361
lowerneck -11.416224405595257 -0.6317176437518983 1.347595195305401
upperneck 18.859826018109818 -0.2533908087100354 -3.898665605972395
head 7.823939603374979 -0.31580870281671425 -1.5696740003904175
rclavicle -5.484803024237352E-16 -6.19613061981758E-16
rhumerus -0.5400138954872045 0.8995143956030738 -60.22134573947413
rradius 53.3255657386647
rwrist 17.446022091219795
rhand -27.236818211343024 -23.409395653799727
rfingers 7.125019999999924
rthumb -0.8305149712629305 -53.546467818946
lclavicle -4.899801830024072E-16 -6.929314311250694E-16
lhumerus -1.2932385592052 -6.9254432047556875 60.48671904976715
lradius 52.6389776278301
lwrist -11.133232109167572
lhand -37.27048217868734 -31.2225846699801
lfingers 7.12501999999992
lthumb -10.373060182353434 -1.6689928234867892
rfemur -21.399452545576963 -0.3511524616798143 19.53145436524704
rtibia 50.63548941472015
rfoot -22.79822261776701 -13.86748029043708
rtoes -12.257553906016735
lfemur -23.11503762140665 1.544176263043011 -18.14348158232086
ltibia 50.108837304310924
lfoot -25.938292536703038 -3.6525241478877057
ltoes -16.707864125496528
227
root 0 0 0 -0.5092740367235145 -3.0166151764630627 -0.1947631652849835
lowerback 11.21621107158276 0.635152309145194 0.39936968199130896
upperback -1.9403931361409728 0.928147653215163 0.49747887654075285
thorax -8.373284333238152 0.4321410421833243 0.10992995548751566
lowerneck -11.416945969725738 -0.6319929700965422 1.3471556425299809
upperneck 18.859867959485257 -0.25383637864510455 -3.898081791912469
head 7.824074180101154 -0.3160112468357471 -1.5694586304607454
rclavicle -5.48532235872292E-16 -6.195721471141756E-16
rhumerus -0.5434090365417514 0.8972600537066295 -60.22335406509332
rradius 53.322465322660754
rwrist 17.44449338153276
rhand -27.235695320078612 -23.40401122340451
rfingers 7.125019999999924
rthumb -0.8294706966758847 -53.54117873647313
lclavicle -4.899198805483077E-16 -6.92942128258629E-16
lhumerus -1.2903836333244865 -6.926149824332239 60.48475367305075
lradius 52.64119055173
lwrist -11.13469844107154
lhand -37.271424793509766 -31.227537260679426
lfingers 7.12501999999992
lthumb -10.373965006866246 -1.6739624768176355
rfemur -21.402067550692845 -0.35269600623940134 19.529354514045725
rtibia 50.63880589442598
rfoot -22.80281131934585 -13.869722480297195
rtoes -12.262402809462195
lfemur -23.112933283550436 1.5436744651567924 -18.143722429464734
ltibia 50.10638899727557
lfoot -25.9354163730591 -3.652439772153384
ltoes -16.706020359269193
228
root 0 0 0 -0.5095904140597536 -3.0164764441009577 -0.19504408237038195
lowerback 11.216086394743552 0.6350780885392099 0.3993996190227768
upperback -1.939978719855858 0.9280783922453981 0.49766913862011836
thorax -8.372766972195627 0.4321208127041003 0.11012682147050051
lowerneck -11.41781417008484 -0.6323322286142561 1.3466255895248094
upperneck 18.8599217388019 -0.2543765693284321 -3.8973782886756916
head 7.824237778071583 -0.31625441549591204 -1.5691981865890972
rclavicle -5.485857301882728E-16 -6.195299618345253E-16
rhumerus -0.5468554791160862 0.8949720568496158 -60.2253938827732
rradius 53.319316020891904
rwrist 17.44294073432088
rhand -27.234554994823643 -23.398544664051443
rfingers 7.125019999999924
rthumb -0.8284101161693238 -53.535807368956554
lclavicle -4.8986258126194115E-16 -6.929504352910631E-16
lhumerus -1.2877564570407802 -6.9268019960077005 60.482948453638045
lradius 52.643228270694365
lwrist -11.136045807429959
lhand -37.27229129539708 -31.232092057367524
lfingers 7.12501999999992
lthumb -10.3747970556105 -1.6785323916472201
rfemur -21.404306340125675 -0.35400940871342623 19.527562798940185
rtibia 50.64162085887403
rfoot -22.806720324458876 -13.871634628369403
rtoes -12.266534151631369
lfemur -23.111206763296778 1.54326503380581 -18.143922983521243
ltibia 50.1044026053415
lfoot -25.93307000172834 -3.652375593035668
ltoes -16.704522119134086
229
root 0 0 0 -0.5099468063489209 -3.016331640243324 -0.19537435370894574
lowerback 11.215946399802405 0.6350013355924105 0.39944523675828414
upperback -1.9395123099176377 0.9280092288576745 0.4978827512865261
thorax -8.372183491479621 0.4320996198982474 0.11034046416510024
lowerneck -11.418794321496623 -0.6327218802639778 1.346026312106493
upperneck 18.859985063039456 -0.2549897943268402 -3.8965829584440868
head 7.82442380937001 -0.31652847536230666 -1.5689031002622356
rclavicle -5.486402418411861E-16 -6.194859417310115E-16
rhumerus -0.5503820949914466 0.892632102926072 -60.22748350964685
rradius 53.31609084950581
rwrist 17.441349205681163
rhand -27.233387123340467 -23.39294843196044
rfingers 7.125019999999924
rthumb -0.8273233723372764 -53.53030455347513
lclavicle -4.898128156718379E-16 -6.929546453315555E-16
lhumerus -1.2856635356259982 -6.927325180478903 60.48151706707137
lradius 52.64485318729903
lwrist -11.137115401470307
lhand -37.27297965791302 -31.235714241649326
lfingers 7.12501999999992
lthumb -10.375458578477044 -1.682164255324139
rfemur -21.406122559702567 -0.3550670280268733 19.526115190190705
rtibia 50.64388106025394
rfoot -22.809871843991797 -13.873178336923495
rtoes -12.269865710572564
lfemur -23.109834896027834 1.5429416636478606 -18.144084568262418
ltibia 50.10284337842144
lfoot -25.931216520762533 -3.6523289818658213
ltoes -16.70334355836019
